<?xml version="1.0" encoding="utf-8"?>
<!-- Generator: Adobe Illustrator 16.0.0, SVG Export Plug-In . SVG Version: 6.00 Build 0)  -->
<!DOCTYPE svg PUBLIC "-//W3C//DTD SVG 1.1//EN" "http://www.w3.org/Graphics/SVG/1.1/DTD/svg11.dtd">
<svg version="1.1" id="Layer_1" xmlns="http://www.w3.org/2000/svg" xmlns:xlink="http://www.w3.org/1999/xlink" x="0px" y="0px"
	 width="237.833px" height="211.667px" viewBox="0 0 237.833 211.667" enable-background="new 0 0 237.833 211.667"
	 xml:space="preserve">
<g>
	<g>
		<rect x="149.091" y="54.899" fill="#797B7D" width="11.962" height="80.914"/>
		<rect x="126.03" y="54.899" fill="#797B7D" width="11.963" height="80.914"/>
		<rect x="102.012" y="54.899" fill="#797B7D" width="11.961" height="80.914"/>
		<rect x="78.95" y="54.899" fill="#797B7D" width="11.962" height="80.914"/>
	</g>
	<g>
		<g>
			
				<line fill="none" stroke="#FFFFFF" stroke-width="1.8021" stroke-miterlimit="10" x1="118.383" y1="127.242" x2="146.844" y2="127.242"/>
			<g>
				<polygon fill="#FFFFFF" points="141.783,133.916 144.617,127.242 141.783,120.567 157.602,127.242 				"/>
			</g>
		</g>
	</g>
	<g>
		<path fill="#808083" stroke="#FFFFFF" stroke-width="1.3278" stroke-miterlimit="10" d="M85.954,88.711
			c0.178-0.296,0.398-0.527,0.669-0.654c0.41,1.739-0.211,3.48,0.56,5.155c2.607,5.646,14.94,5.691,19.757,3.881
			c3.613-1.356,6.294-3.721,10.184-4.528c3.253-0.676,10.825,1.013,12.487-1.873l-0.415-0.461l-1.449-1.63
			c0,0-1.094,0.28-1.109,0.287c3.177-0.823,4.233,4.237,7.438,3.249c0.655-0.202,0.766-1.217,1.442-1.374
			c2.052-0.471,3.998,1.746,6.286,0.969c1.945-0.771,1.134-3.465,4.106-2.984c1.72,0.271,3.898,2.069,5.099,3.237
			c2.951,2.863,4.281,7.375-0.967,8.529c-0.462,2.714-5.611,1.133-7.119,0.217c0,0-0.563-0.438-1.697-0.63
			c-1.137-0.191-1.137-0.191-1.137-0.191s-2.036,1.419-3.301,1.398c-2.104-0.043-2.426-2.13-4.643-1.398
			c-2.115,0.709-3.497,2.443-4.811,4.127c0.255-1.815,1.039-3.492,1.969-5.06c-2.721-1.709-8.204-2.543-11.14-2.116
			c-4.819,0.703-8.56,4.499-13.559,4.822c-6.059,0.393-18.837-0.563-19.321-9.056C85.229,91.607,85.326,89.753,85.954,88.711z"/>
		
			<ellipse transform="matrix(0.3658 -0.9307 0.9307 0.3658 9.9324 196.7605)" fill="#231F20" stroke="#FFFFFF" stroke-width="1.5463" stroke-miterlimit="10" cx="149.341" cy="91.092" rx="2.671" ry="4.605"/>
		
			<ellipse transform="matrix(-0.2017 -0.9795 0.9795 -0.2017 80.1534 266.8799)" fill="#231F20" stroke="#FFFFFF" stroke-width="1.5463" stroke-miterlimit="10" cx="148.843" cy="100.774" rx="2.671" ry="4.606"/>
	</g>
</g>
<path opacity="0.8" fill="#C8CACB" stroke="#231F20" stroke-width="0.6267" enable-background="new    " d="M92.649,18.873
	c6.449,22.039,13.91,44.312,19.638,66.314c0.974,3.736,2.972,9.299,0.487,8.542c-8.061-24.479-16.109-48.96-24.164-73.439"/>
<rect x="106.939" y="83.128" fill="none" stroke="#D80006" stroke-width="0.755" stroke-miterlimit="10" width="49.295" height="25.623"/>
<text transform="matrix(1 0 0 1 109.9717 24.8325)" enable-background="new    "><tspan x="0" y="0" fill="#CCCCCC" font-family="'Hack-Regular'" font-size="15.3432">behavioral</tspan><tspan x="0" y="18.412" fill="#CCCCCC" font-family="'Hack-Regular'" font-size="15.3432">recording</tspan></text>
<text transform="matrix(1 0 0 1 166.2378 83.1279)" enable-background="new    "><tspan x="0" y="0" fill="#ED1C24" font-family="'Hack-Regular'" font-size="15.3432">light</tspan><tspan x="0" y="18.412" fill="#ED1C24" font-family="'Hack-Regular'" font-size="15.3432">sheet</tspan><tspan x="0" y="36.824" fill="#ED1C24" font-family="'Hack-Regular'" font-size="15.3432">imaging</tspan></text>
<text transform="matrix(1 0 0 1 18.8018 116.9917)" enable-background="new    "><tspan x="0" y="0" fill="#797B7D" font-family="'Hack-Regular'" font-size="15.3432">visual</tspan><tspan x="-18.475" y="18.412" fill="#797B7D" font-family="'Hack-Regular'" font-size="15.3432">stimulus</tspan></text>
</svg>
